<?xml version="1.0" encoding="utf-8"?>
<!-- Generator: Adobe Illustrator 23.1.1, SVG Export Plug-In . SVG Version: 6.00 Build 0)  -->
<svg version="1.1" id="Layer_1" xmlns="http://www.w3.org/2000/svg" xmlns:xlink="http://www.w3.org/1999/xlink" x="0px" y="0px"
	 viewBox="0 0 485.46 151.25" style="enable-background:new 0 0 485.46 151.25;" xml:space="preserve">
<style type="text/css">
	.st0{fill:#182D46;}
</style>
<g>
	<g>
		<path class="st0" d="M153.56,75.59c0,13.19-10.51,23.7-23.83,23.7c-13.25,0-23.77-10.51-23.77-23.7s10.51-23.7,23.77-23.7
			C143.05,51.89,153.56,62.4,153.56,75.59z M143.72,75.59c0-8.03-5.89-14.66-13.99-14.66c-8.03,0-13.99,6.63-13.99,14.66
			c0,8.03,5.96,14.66,13.99,14.66C137.83,90.25,143.72,83.62,143.72,75.59z"/>
		<path class="st0" d="M203.36,79.94h9.91c-1.87,11.65-10.64,19.35-22.43,19.35c-13.25,0-23.77-9.91-23.77-23.7
			s10.51-23.7,23.77-23.7c11.78,0,20.55,7.7,22.43,19.35h-9.91c-1.61-6.49-5.96-10.11-12.52-10.11c-8.1,0-13.99,5.82-13.99,14.46
			c0,8.64,5.89,14.46,13.99,14.46C197.4,90.05,201.75,86.44,203.36,79.94z"/>
		<path class="st0" d="M267.76,77.67c0,13.59-8.17,21.69-20.62,21.69c-12.39,0-20.48-8.1-20.48-21.69V52.83h9.64v24.9
			c0,7.56,4.35,12.59,10.85,12.59c6.63,0,10.98-5.02,10.98-12.59v-24.9h9.64V77.67z"/>
		<path class="st0" d="M292.53,72.85h20.55v8.77h-20.55v16.74h-9.71V52.83h33.27v8.84h-23.57V72.85z"/>
		<path class="st0" d="M338.31,98.35h-9.71V52.83h9.71V98.35z"/>
		<path class="st0" d="M363.68,71.51h21.29v8.77h-21.29v9.31h24.03v8.77h-33.74V52.83h33.74v8.77h-24.03V71.51z"/>
		<path class="st0" d="M434.57,98.35h-32.94V52.83h9.71v36.89h23.23V98.35z"/>
	</g>
	<path class="st0" d="M68.88,52.83h-18v16.78h14.23V58.68l21.47,16.9L65.11,92.5V81.57H50.88v16.78h18
		c13.91,0,24.22-9.79,24.22-22.96C93.1,62.48,82.79,52.83,68.88,52.83z"/>
</g>
</svg>
